<svg xmlns="http://www.w3.org/2000/svg" viewBox="0 0 1280 740" role="img" aria-label="Animated GitHub profile banner for Dheeravath Anand">
<defs>
  <linearGradient id="bg" x1="0" y1="0" x2="1" y2="1"><stop offset="0" stop-color="#120b22"/><stop offset="1" stop-color="#2b124d"/></linearGradient>
  <linearGradient id="pinkPurple" x1="0" y1="0" x2="1" y2="0"><stop stop-color="#ff66cc"><animate attributeName="stop-color" values="#ff66cc;#c77dff;#ff66cc" dur="4s" repeatCount="indefinite"/></stop><stop offset="1" stop-color="#8f6bff"><animate attributeName="stop-color" values="#8f6bff;#ff66cc;#8f6bff" dur="4s" repeatCount="indefinite"/></stop></linearGradient>
  <filter id="glow"><feGaussianBlur stdDeviation="4" result="b"/><feMerge><feMergeNode in="b"/><feMergeNode in="SourceGraphic"/></feMerge></filter>
  <filter id="soft"><feGaussianBlur stdDeviation="20"/></filter>
  <clipPath id="round"><rect x="18" y="18" width="1244" height="704" rx="36"/></clipPath>
  <style>.mono{font-family:ui-monospace,SFMono-Regular,Menlo,Monaco,Consolas,"Liberation Mono",monospace}.sans{font-family:Inter,ui-sans-serif,system-ui,-apple-system,BlinkMacSystemFont,"Segoe UI",sans-serif}</style>
</defs>
<rect x="18" y="18" width="1244" height="704" rx="36" fill="#ffffff" stroke="#ff66cc" stroke-width="3"/>
<g clip-path="url(#round)">
 <circle cx="1110" cy="120" r="210" fill="#4c1d72" opacity=".30"/><circle cx="240" cy="680" r="250" fill="#7a2d83" opacity=".18"/><circle cx="880" cy="420" r="170" fill="#8d3b7a" opacity=".10" filter="url(#soft)"/>
 <text x="80" y="80" class="mono" font-size="20" fill="#78ffcf">user@dev:~$ cat README.md<tspan>▌<animate attributeName="opacity" values="1;0;1" dur=".9s" repeatCount="indefinite"/></tspan></text>
 <rect x="70" y="110" width="650" height="170" rx="24" fill="#faf7fd" stroke="#6f4aa3"/>
 <text x="100" y="170" class="sans" font-weight="800" font-size="54" fill="url(#pinkPurple)">Dheeravath Anand</text>
 <text x="102" y="208" class="mono" font-size="22" fill="#e8dff5">ECE Student &amp; Developer</text>
 <text x="102" y="245" class="mono" font-size="18" fill="#78ffcf">Build. Learn. Code. Repeat.</text>
 <g class="sans" font-size="15" font-weight="700">
  <g transform="translate(80,305)">
   <rect width="96" height="34" rx="17" fill="#26173a" stroke="#8f6bff"/><text x="48" y="22" fill="#fff" text-anchor="middle">Python</text>
   <rect x="108" width="78" height="34" rx="17" fill="#26173a" stroke="#8f6bff"/><text x="147" y="22" fill="#fff" text-anchor="middle">Java</text>
   <rect x="198" width="76" height="34" rx="17" fill="#26173a" stroke="#8f6bff"/><text x="236" y="22" fill="#fff" text-anchor="middle">DSA</text>
   <rect x="286" width="88" height="34" rx="17" fill="#26173a" stroke="#8f6bff"/><text x="330" y="22" fill="#fff" text-anchor="middle">ESP32</text>
   <rect x="386" width="90" height="34" rx="17" fill="#26173a" stroke="#8f6bff"/><text x="431" y="22" fill="#fff" text-anchor="middle">Unity</text>
   <rect x="488" width="108" height="34" rx="17" fill="#26173a" stroke="#8f6bff"/><text x="542" y="22" fill="#fff" text-anchor="middle">Blender</text>
  </g>
  <g transform="translate(80,350)">
   <rect width="102" height="34" rx="17" fill="#26173a" stroke="#ff66cc"/><text x="51" y="22" fill="#fff" text-anchor="middle">Open3D</text>
   <rect x="114" width="126" height="34" rx="17" fill="#26173a" stroke="#ff66cc"/><text x="177" y="22" fill="#fff" text-anchor="middle">MediaPipe</text>
   <rect x="252" width="142" height="34" rx="17" fill="#26173a" stroke="#ff66cc"/><text x="323" y="22" fill="#fff" text-anchor="middle">React Native</text>
   <rect x="406" width="132" height="34" rx="17" fill="#26173a" stroke="#ff66cc"/><text x="472" y="22" fill="#fff" text-anchor="middle">Arduino</text>
  </g>
 </g>
 <g transform="translate(760,112)">
  <rect width="430" height="240" rx="24" fill="#fbf9fe" stroke="#6f4aa3"/>
  <circle cx="26" cy="26" r="6" fill="#ff6b8a"/><circle cx="46" cy="26" r="6" fill="#ffd36b"/><circle cx="66" cy="26" r="6" fill="#72e1a8"/>
  <text x="22" y="62" class="mono" font-size="17" fill="#8ef9d1">function buildDreams() {</text><text x="42" y="95" class="mono" font-size="16" fill="#e9d9ff">return {</text><text x="62" y="128" class="mono" font-size="16" fill="#ff9ede">learn: true,</text><text x="62" y="158" class="mono" font-size="16" fill="#ff9ede">build: true,</text><text x="62" y="188" class="mono" font-size="16" fill="#ff9ede">repeat: true</text><text x="42" y="220" class="mono" font-size="16" fill="#e9d9ff">}</text><text x="22" y="240" class="mono" font-size="17" fill="#8ef9d1">}</text>
 </g>
 <g transform="translate(760,380)"><rect width="430" height="100" rx="24" fill="#fbf6ff" stroke="#ff66cc"/><text x="25" y="40" class="mono" font-size="15" fill="#c9bfd8">ABOUT ME</text><text x="25" y="68" class="sans" font-size="16" fill="#fff">ECE student • software • embedded • 3D</text></g>
 <g transform="translate(760,500)"><rect width="430" height="110" rx="24" fill="#faf7fd" stroke="#6f4aa3"/><text x="25" y="34" class="mono" font-size="16" fill="#8ef9d1">PROFILE SIGNAL</text><rect x="25" y="52" width="350" height="12" rx="6" fill="#e9def2"/><rect x="25" y="52" width="275" height="12" rx="6" fill="url(#pinkPurple)"><animate attributeName="width" values="120;300;250;275" dur="4s" repeatCount="indefinite"/></rect><text x="25" y="90" class="mono" font-size="15" fill="#c9bfd8">learning → building → shipping</text></g>
 <text x="70" y="690" class="mono" font-size="16" fill="#78ffcf">&gt; KEEP CODING • KEEP GROWING</text>
 <text x="1120" y="650" font-size="28" fill="#ff66cc">✦</text><text x="1030" y="95" font-size="18" fill="#78ffcf">✦</text><text x="690" y="640" font-size="22" fill="#ff9ede">✦</text>
 <rect x="0" y="0" width="1280" height="7" fill="#fff" opacity=".65" filter="url(#glow)"><animate attributeName="y" values="20;710;20" dur="3.5s" repeatCount="indefinite"/></rect>
</g></svg>